<mxfile host="app.diagrams.net" modified="2022-11-28T09:22:43.298Z" agent="5.0 (Windows)" etag="whjA0T-Ge8tx9ah47q18" version="20.6.0" type="github">
  <diagram id="C5RBs43oDa-KdzZeNtuy" name="Page-1">
    <mxGraphModel dx="564" dy="397" grid="1" gridSize="10" guides="1" tooltips="1" connect="1" arrows="1" fold="1" page="1" pageScale="1" pageWidth="1000" pageHeight="1500" math="0" shadow="0">
      <root>
        <mxCell id="WIyWlLk6GJQsqaUBKTNV-0" />
        <mxCell id="WIyWlLk6GJQsqaUBKTNV-1" parent="WIyWlLk6GJQsqaUBKTNV-0" />
        <mxCell id="lRPSNXLB5HRoll92oJJH-1" style="edgeStyle=orthogonalEdgeStyle;rounded=0;orthogonalLoop=1;jettySize=auto;html=1;entryX=0.5;entryY=0;entryDx=0;entryDy=0;strokeColor=#0B4D6A;" edge="1" parent="WIyWlLk6GJQsqaUBKTNV-1" source="WIyWlLk6GJQsqaUBKTNV-3" target="lRPSNXLB5HRoll92oJJH-0">
          <mxGeometry relative="1" as="geometry" />
        </mxCell>
        <mxCell id="WIyWlLk6GJQsqaUBKTNV-3" value="&lt;div align=&quot;center&quot;&gt;Preparing scrapping image from community wiki&lt;/div&gt;" style="rounded=1;whiteSpace=wrap;html=1;fontSize=12;glass=0;strokeWidth=1;shadow=0;fillColor=#09555B;strokeColor=#BAC8D3;fontColor=#EEEEEE;align=center;" parent="WIyWlLk6GJQsqaUBKTNV-1" vertex="1">
          <mxGeometry x="339.65" y="60" width="120" height="40" as="geometry" />
        </mxCell>
        <mxCell id="WIyWlLk6GJQsqaUBKTNV-4" value="Yes" style="rounded=1;html=1;jettySize=auto;orthogonalLoop=1;fontSize=11;endArrow=block;endFill=0;endSize=8;strokeWidth=1;shadow=0;labelBackgroundColor=none;edgeStyle=orthogonalEdgeStyle;strokeColor=#0B4D6A;entryX=0.5;entryY=0;entryDx=0;entryDy=0;" parent="WIyWlLk6GJQsqaUBKTNV-1" source="WIyWlLk6GJQsqaUBKTNV-6" target="WIyWlLk6GJQsqaUBKTNV-12" edge="1">
          <mxGeometry y="20" relative="1" as="geometry">
            <mxPoint as="offset" />
            <mxPoint x="399.65" y="410" as="targetPoint" />
          </mxGeometry>
        </mxCell>
        <mxCell id="WIyWlLk6GJQsqaUBKTNV-5" value="No" style="edgeStyle=orthogonalEdgeStyle;rounded=1;html=1;jettySize=auto;orthogonalLoop=1;fontSize=11;endArrow=block;endFill=0;endSize=8;strokeWidth=1;shadow=0;labelBackgroundColor=none;strokeColor=#0B4D6A;" parent="WIyWlLk6GJQsqaUBKTNV-1" source="WIyWlLk6GJQsqaUBKTNV-6" target="WIyWlLk6GJQsqaUBKTNV-7" edge="1">
          <mxGeometry y="10" relative="1" as="geometry">
            <mxPoint as="offset" />
          </mxGeometry>
        </mxCell>
        <mxCell id="WIyWlLk6GJQsqaUBKTNV-6" value="Check if device connected into internet" style="rhombus;whiteSpace=wrap;html=1;shadow=0;fontFamily=Helvetica;fontSize=12;align=center;strokeWidth=1;spacing=6;spacingTop=-4;rounded=1;fillColor=#09555B;strokeColor=#BAC8D3;fontColor=#EEEEEE;" parent="WIyWlLk6GJQsqaUBKTNV-1" vertex="1">
          <mxGeometry x="332.99" y="250" width="133.33" height="120" as="geometry" />
        </mxCell>
        <mxCell id="WIyWlLk6GJQsqaUBKTNV-7" value="Exit, close file, and print out error message" style="rounded=1;whiteSpace=wrap;html=1;fontSize=12;glass=0;strokeWidth=1;shadow=0;fillColor=#09555B;strokeColor=#BAC8D3;fontColor=#EEEEEE;" parent="WIyWlLk6GJQsqaUBKTNV-1" vertex="1">
          <mxGeometry x="518.65" y="285" width="150" height="50" as="geometry" />
        </mxCell>
        <mxCell id="lRPSNXLB5HRoll92oJJH-7" value="" style="edgeStyle=orthogonalEdgeStyle;rounded=0;orthogonalLoop=1;jettySize=auto;html=1;strokeColor=#0B4D6A;fontSize=11;fontColor=#EEEEEE;" edge="1" parent="WIyWlLk6GJQsqaUBKTNV-1" source="WIyWlLk6GJQsqaUBKTNV-11" target="lRPSNXLB5HRoll92oJJH-6">
          <mxGeometry relative="1" as="geometry" />
        </mxCell>
        <mxCell id="WIyWlLk6GJQsqaUBKTNV-11" value="Extract individual links from &quot;/wiki/category&quot;, sanitize all individual links and store to vector according to &quot;wiki/category&quot;" style="rounded=1;whiteSpace=wrap;html=1;fontSize=12;glass=0;strokeWidth=1;shadow=0;fillColor=#09555B;strokeColor=#BAC8D3;fontColor=#EEEEEE;" parent="WIyWlLk6GJQsqaUBKTNV-1" vertex="1">
          <mxGeometry x="308.22" y="560" width="182.86" height="80" as="geometry" />
        </mxCell>
        <mxCell id="lRPSNXLB5HRoll92oJJH-3" value="" style="edgeStyle=orthogonalEdgeStyle;rounded=0;orthogonalLoop=1;jettySize=auto;html=1;strokeColor=#0B4D6A;fontSize=11;fontColor=#EEEEEE;" edge="1" parent="WIyWlLk6GJQsqaUBKTNV-1" source="WIyWlLk6GJQsqaUBKTNV-12" target="WIyWlLk6GJQsqaUBKTNV-11">
          <mxGeometry relative="1" as="geometry" />
        </mxCell>
        <mxCell id="WIyWlLk6GJQsqaUBKTNV-12" value="&lt;div style=&quot;font-size: 11px; line-height: 0%;&quot; align=&quot;center&quot;&gt;&lt;font style=&quot;font-size: 11px;&quot; color=&quot;#EEEEEE&quot;&gt;&lt;span style=&quot;background-color: transparent;&quot;&gt;Getting all link from web page:&lt;/span&gt;&lt;/font&gt;&lt;/div&gt;&lt;ul style=&quot;font-size: 11px;&quot;&gt;&lt;li&gt;&lt;div style=&quot;font-family: Consolas, &amp;quot;Courier New&amp;quot;, monospace; font-weight: normal; line-height: 19px;&quot;&gt;&lt;div&gt;&lt;font style=&quot;font-size: 11px;&quot; color=&quot;#EEEEEE&quot;&gt;&lt;span style=&quot;background-color: transparent;&quot;&gt;/wiki/Category:Character_Cards&lt;/span&gt;&lt;/font&gt;&lt;/div&gt;&lt;/div&gt;&lt;/li&gt;&lt;li&gt;&lt;div style=&quot;font-family: Consolas, &amp;quot;Courier New&amp;quot;, monospace; font-weight: normal; line-height: 19px;&quot;&gt;&lt;div&gt;&lt;font style=&quot;font-size: 11px;&quot; color=&quot;#EEEEEE&quot;&gt;&lt;span style=&quot;background-color: transparent;&quot;&gt;/wiki/Category:Constellation_Overviews&lt;/span&gt;&lt;/font&gt;&lt;/div&gt;&lt;/div&gt;&lt;/li&gt;&lt;li&gt;&lt;div style=&quot;font-family: Consolas, &amp;quot;Courier New&amp;quot;, monospace; font-weight: normal; line-height: 19px;&quot;&gt;&lt;div&gt;&lt;font style=&quot;font-size: 11px;&quot; color=&quot;#EEEEEE&quot;&gt;&lt;span style=&quot;background-color: transparent;&quot;&gt;/wiki/Category:Character_Introduction_Cards&lt;/span&gt;&lt;/font&gt;&lt;/div&gt;&lt;/div&gt;&lt;/li&gt;&lt;li&gt;&lt;div style=&quot;font-family: Consolas, &amp;quot;Courier New&amp;quot;, monospace; font-weight: normal; line-height: 19px;&quot;&gt;&lt;div&gt;&lt;font style=&quot;font-size: 11px;&quot; color=&quot;#EEEEEE&quot;&gt;&lt;span style=&quot;background-color: transparent;&quot;&gt;/wiki/Category:Character_Namecards&lt;/span&gt;&lt;/font&gt;&lt;/div&gt;&lt;/div&gt;&lt;/li&gt;&lt;/ul&gt;" style="rounded=1;whiteSpace=wrap;html=1;fontSize=12;glass=0;strokeWidth=1;shadow=0;fillColor=#09555B;strokeColor=#BAC8D3;fontColor=#EEEEEE;align=left;gradientColor=none;perimeterSpacing=0;autosize=0;" parent="WIyWlLk6GJQsqaUBKTNV-1" vertex="1">
          <mxGeometry x="240" y="410" width="319.31" height="110" as="geometry" />
        </mxCell>
        <mxCell id="lRPSNXLB5HRoll92oJJH-2" style="edgeStyle=orthogonalEdgeStyle;rounded=0;orthogonalLoop=1;jettySize=auto;html=1;entryX=0.5;entryY=0;entryDx=0;entryDy=0;strokeColor=#0B4D6A;" edge="1" parent="WIyWlLk6GJQsqaUBKTNV-1" source="lRPSNXLB5HRoll92oJJH-0" target="WIyWlLk6GJQsqaUBKTNV-6">
          <mxGeometry relative="1" as="geometry" />
        </mxCell>
        <mxCell id="lRPSNXLB5HRoll92oJJH-0" value="Creating necessary dummy text file for holding all links" style="rounded=1;whiteSpace=wrap;html=1;fontSize=12;glass=0;strokeWidth=1;shadow=0;fillColor=#09555B;strokeColor=#BAC8D3;fontColor=#EEEEEE;align=center;" vertex="1" parent="WIyWlLk6GJQsqaUBKTNV-1">
          <mxGeometry x="339.65" y="160" width="120" height="40" as="geometry" />
        </mxCell>
        <mxCell id="lRPSNXLB5HRoll92oJJH-9" value="" style="edgeStyle=orthogonalEdgeStyle;rounded=0;orthogonalLoop=1;jettySize=auto;html=1;strokeColor=#0B4D6A;fontSize=11;fontColor=#EEEEEE;" edge="1" parent="WIyWlLk6GJQsqaUBKTNV-1" source="lRPSNXLB5HRoll92oJJH-6" target="lRPSNXLB5HRoll92oJJH-8">
          <mxGeometry relative="1" as="geometry" />
        </mxCell>
        <mxCell id="lRPSNXLB5HRoll92oJJH-6" value="User input to choose what image want to scrappe" style="shape=parallelogram;perimeter=parallelogramPerimeter;whiteSpace=wrap;html=1;fixedSize=1;labelBackgroundColor=none;strokeColor=#BAC8D3;fontSize=11;fontColor=#EEEEEE;fillColor=#09555B;gradientColor=none;" vertex="1" parent="WIyWlLk6GJQsqaUBKTNV-1">
          <mxGeometry x="322.98" y="680" width="153.34" height="70" as="geometry" />
        </mxCell>
        <mxCell id="lRPSNXLB5HRoll92oJJH-26" value="" style="edgeStyle=orthogonalEdgeStyle;rounded=0;orthogonalLoop=1;jettySize=auto;html=1;strokeColor=#0B4D6A;fontSize=11;fontColor=#EEEEEE;endArrow=block;endFill=0;" edge="1" parent="WIyWlLk6GJQsqaUBKTNV-1" source="lRPSNXLB5HRoll92oJJH-8" target="lRPSNXLB5HRoll92oJJH-19">
          <mxGeometry relative="1" as="geometry" />
        </mxCell>
        <mxCell id="lRPSNXLB5HRoll92oJJH-27" value="1,2,3,4,5,6, and default" style="edgeLabel;html=1;align=center;verticalAlign=middle;resizable=0;points=[];fontSize=11;fontColor=#EEEEEE;" vertex="1" connectable="0" parent="lRPSNXLB5HRoll92oJJH-26">
          <mxGeometry x="-0.2651" relative="1" as="geometry">
            <mxPoint as="offset" />
          </mxGeometry>
        </mxCell>
        <mxCell id="lRPSNXLB5HRoll92oJJH-8" value="switch case" style="rhombus;whiteSpace=wrap;html=1;labelBackgroundColor=none;strokeColor=#BAC8D3;fontSize=11;fontColor=#EEEEEE;fillColor=#09555B;gradientColor=none;" vertex="1" parent="WIyWlLk6GJQsqaUBKTNV-1">
          <mxGeometry x="360" y="790" width="80" height="80" as="geometry" />
        </mxCell>
        <mxCell id="lRPSNXLB5HRoll92oJJH-21" value="" style="edgeStyle=orthogonalEdgeStyle;rounded=0;orthogonalLoop=1;jettySize=auto;html=1;strokeColor=#0B4D6A;fontSize=11;fontColor=#EEEEEE;endArrow=block;endFill=0;" edge="1" parent="WIyWlLk6GJQsqaUBKTNV-1" source="lRPSNXLB5HRoll92oJJH-19" target="lRPSNXLB5HRoll92oJJH-20">
          <mxGeometry relative="1" as="geometry" />
        </mxCell>
        <mxCell id="lRPSNXLB5HRoll92oJJH-22" value="&lt;div&gt;No&lt;/div&gt;" style="edgeLabel;html=1;align=center;verticalAlign=middle;resizable=0;points=[];fontSize=11;fontColor=#EEEEEE;" vertex="1" connectable="0" parent="lRPSNXLB5HRoll92oJJH-21">
          <mxGeometry x="0.2549" relative="1" as="geometry">
            <mxPoint x="-11" y="15" as="offset" />
          </mxGeometry>
        </mxCell>
        <mxCell id="lRPSNXLB5HRoll92oJJH-24" value="" style="edgeStyle=orthogonalEdgeStyle;rounded=0;orthogonalLoop=1;jettySize=auto;html=1;strokeColor=#0B4D6A;fontSize=11;fontColor=#EEEEEE;endArrow=block;endFill=0;" edge="1" parent="WIyWlLk6GJQsqaUBKTNV-1" source="lRPSNXLB5HRoll92oJJH-19" target="lRPSNXLB5HRoll92oJJH-23">
          <mxGeometry relative="1" as="geometry" />
        </mxCell>
        <mxCell id="lRPSNXLB5HRoll92oJJH-25" value="&lt;div&gt;Yes&lt;/div&gt;" style="edgeLabel;html=1;align=center;verticalAlign=middle;resizable=0;points=[];fontSize=11;fontColor=#EEEEEE;" vertex="1" connectable="0" parent="lRPSNXLB5HRoll92oJJH-24">
          <mxGeometry x="0.2239" relative="1" as="geometry">
            <mxPoint y="10" as="offset" />
          </mxGeometry>
        </mxCell>
        <mxCell id="lRPSNXLB5HRoll92oJJH-19" value="Check if folder exist" style="rhombus;whiteSpace=wrap;html=1;labelBackgroundColor=none;strokeColor=#BAC8D3;fontSize=11;fontColor=#EEEEEE;fillColor=#09555B;gradientColor=none;" vertex="1" parent="WIyWlLk6GJQsqaUBKTNV-1">
          <mxGeometry x="354.65" y="920" width="90" height="90" as="geometry" />
        </mxCell>
        <mxCell id="lRPSNXLB5HRoll92oJJH-20" value="Create folder and pulling according user input" style="whiteSpace=wrap;html=1;fontSize=11;fillColor=#09555B;strokeColor=#BAC8D3;fontColor=#EEEEEE;labelBackgroundColor=none;gradientColor=none;" vertex="1" parent="WIyWlLk6GJQsqaUBKTNV-1">
          <mxGeometry x="339.6499999999999" y="1070" width="120" height="60" as="geometry" />
        </mxCell>
        <mxCell id="lRPSNXLB5HRoll92oJJH-23" value="Delete all folder content" style="whiteSpace=wrap;html=1;fontSize=11;fillColor=#09555B;strokeColor=#BAC8D3;fontColor=#EEEEEE;labelBackgroundColor=none;gradientColor=none;" vertex="1" parent="WIyWlLk6GJQsqaUBKTNV-1">
          <mxGeometry x="492.9799999999999" y="935" width="120" height="60" as="geometry" />
        </mxCell>
      </root>
    </mxGraphModel>
  </diagram>
</mxfile>
